<svg xmlns="http://www.w3.org/2000/svg" version="1.1" xmlns:xlink="http://www.w3.org/1999/xlink" xmlns:svgjs="http://svgjs.dev/svgjs" viewBox="0 0 8.216674019369577 8.429330449810006"><g transform="matrix(1,0,0,1,0.6935155985519756,5.772802351258031)"><g><path d=" M 0.0915 1.0709999999999997 L 0.0915 0.005999999999999783 L 0.384 0.005999999999999783 L 0.384 0.4109999999999997 L 0.708 0.005999999999999783 L 1.038 0.005999999999999783 L 0.651 0.48299999999999976 L 1.065 1.0709999999999997 L 0.729 1.0709999999999997 L 0.465 0.6794999999999998 L 0.384 0.7634999999999997 L 0.384 1.0709999999999997 L 0.0915 1.0709999999999997 M 1.596003662109375 1.0799999999999996 Q 1.468503662109375 1.0799999999999996 1.377003662109375 1.0379999999999998 Q 1.285503662109375 0.9959999999999998 1.227753662109375 0.9224999999999998 Q 1.170003662109375 0.8489999999999998 1.1430036621093749 0.7537499999999997 Q 1.116003662109375 0.6584999999999996 1.116003662109375 0.5534999999999998 L 1.116003662109375 0.005999999999999783 L 1.408503662109375 0.005999999999999783 L 1.408503662109375 0.5534999999999998 Q 1.408503662109375 0.6059999999999997 1.419003662109375 0.6539999999999997 Q 1.4295036621093749 0.7019999999999997 1.452003662109375 0.7394999999999997 Q 1.474503662109375 0.7769999999999997 1.509753662109375 0.7987499999999997 Q 1.545003662109375 0.8204999999999998 1.596003662109375 0.8204999999999998 Q 1.648503662109375 0.8204999999999998 1.684503662109375 0.7987499999999997 Q 1.720503662109375 0.7769999999999997 1.742253662109375 0.7387499999999998 Q 1.764003662109375 0.7004999999999997 1.774503662109375 0.6524999999999997 Q 1.785003662109375 0.6044999999999997 1.785003662109375 0.5534999999999998 L 1.785003662109375 0.005999999999999783 L 2.077503662109375 0.005999999999999783 L 2.077503662109375 0.5534999999999998 Q 2.077503662109375 0.6644999999999996 2.048253662109375 0.7604999999999997 Q 2.019003662109375 0.8564999999999997 1.960503662109375 0.9284999999999997 Q 1.902003662109375 1.0004999999999997 1.811253662109375 1.0402499999999997 Q 1.720503662109375 1.0799999999999996 1.596003662109375 1.0799999999999996 M 2.54247509765625 0.5474999999999998 L 2.54247509765625 1.0709999999999997 L 2.24997509765625 1.0709999999999997 L 2.24997509765625 0.005999999999999783 L 2.47797509765625 0.005999999999999783 L 2.90547509765625 0.5474999999999998 L 2.90547509765625 0.005999999999999783 L 3.1979750976562498 0.005999999999999783 L 3.1979750976562498 1.0709999999999997 L 2.96547509765625 1.0709999999999997 L 2.54247509765625 0.5474999999999998 M 3.3855175781249995 1.0709999999999997 L 3.3855175781249995 0.005999999999999783 L 3.6780175781249995 0.005999999999999783 L 3.6780175781249995 1.0709999999999997 L 3.3855175781249995 1.0709999999999997 M 3.8655424804687497 1.0709999999999997 L 3.8655424804687497 0.005999999999999783 L 4.15804248046875 0.005999999999999783 L 4.15804248046875 0.4109999999999997 L 4.48204248046875 0.005999999999999783 L 4.81204248046875 0.005999999999999783 L 4.42504248046875 0.48299999999999976 L 4.83904248046875 1.0709999999999997 L 4.50304248046875 1.0709999999999997 L 4.23904248046875 0.6794999999999998 L 4.15804248046875 0.7634999999999997 L 4.15804248046875 1.0709999999999997 L 3.8655424804687497 1.0709999999999997 M 4.905046142578125 1.0709999999999997 L 4.905046142578125 0.005999999999999783 L 5.197546142578125 0.005999999999999783 L 5.197546142578125 0.8159999999999997 L 5.680546142578125 0.8159999999999997 L 5.680546142578125 1.0709999999999997 L 4.905046142578125 1.0709999999999997 M 6.2536208496093755 1.0799999999999996 Q 6.132120849609375 1.0799999999999996 6.033120849609375 1.0342499999999997 Q 5.934120849609375 0.9884999999999997 5.862870849609375 0.9112499999999997 Q 5.791620849609375 0.8339999999999997 5.753370849609375 0.7372499999999997 Q 5.7151208496093755 0.6404999999999997 5.7151208496093755 0.5369999999999997 Q 5.7151208496093755 0.43049999999999977 5.755620849609375 0.3344999999999997 Q 5.796120849609375 0.2384999999999997 5.868870849609375 0.16274999999999973 Q 5.941620849609375 0.08699999999999974 6.041370849609375 0.04349999999999965 Q 6.141120849609375 -2.220446049250313e-16 6.259620849609375 -2.220446049250313e-16 Q 6.381120849609375 -2.220446049250313e-16 6.480120849609375 0.045749999999999735 Q 6.579120849609375 0.09149999999999969 6.649620849609375 0.16949999999999976 Q 6.720120849609375 0.24749999999999972 6.758370849609375 0.3442499999999997 Q 6.796620849609376 0.4409999999999997 6.796620849609376 0.5429999999999997 Q 6.796620849609376 0.6479999999999997 6.756870849609375 0.7439999999999998 Q 6.717120849609375 0.8399999999999997 6.644370849609375 0.9157499999999997 Q 6.571620849609375 0.9914999999999997 6.472620849609375 1.0357499999999997 Q 6.373620849609376 1.0799999999999996 6.2536208496093755 1.0799999999999996 M 6.012120849609375 0.5399999999999997 Q 6.012120849609375 0.5939999999999996 6.027120849609375 0.6442499999999998 Q 6.0421208496093755 0.6944999999999997 6.072120849609375 0.7342499999999997 Q 6.102120849609375 0.7739999999999998 6.147870849609375 0.7972499999999998 Q 6.193620849609375 0.8204999999999998 6.256620849609375 0.8204999999999998 Q 6.319620849609375 0.8204999999999998 6.366120849609375 0.7964999999999998 Q 6.412620849609375 0.7724999999999997 6.4418708496093755 0.7312499999999997 Q 6.471120849609375 0.6899999999999997 6.485370849609375 0.6397499999999997 Q 6.499620849609375 0.5894999999999997 6.499620849609375 0.5369999999999997 Q 6.499620849609375 0.48299999999999976 6.484620849609375 0.43349999999999966 Q 6.469620849609375 0.3839999999999997 6.439620849609375 0.3442499999999997 Q 6.409620849609375 0.30449999999999966 6.363120849609375 0.2819999999999997 Q 6.316620849609375 0.25949999999999973 6.2551208496093755 0.25949999999999973 Q 6.192120849609375 0.25949999999999973 6.146370849609375 0.28349999999999975 Q 6.100620849609375 0.30749999999999966 6.070620849609375 0.3472499999999997 Q 6.040620849609375 0.3869999999999997 6.026370849609375 0.4372499999999997 Q 6.012120849609375 0.4874999999999997 6.012120849609375 0.5399999999999997" fill="#202020" fill-rule="nonzero"></path></g><g><path d=" M 0.267 1.4297625 L 0.3165 1.4297625 L 0.3915 1.6187625 L 0.46725 1.4297625 L 0.5175 1.4297625 L 0.4245 1.6570125 L 0.5265 1.8977625 L 0.7192500000000001 1.4260125000000001 L 0.77625 1.4260125000000001 L 0.5505 1.9585125 L 0.504 1.9585125 L 0.39225 1.6952625000000001 L 0.27975 1.9585125 L 0.234 1.9585125 L 0.009000000000000001 1.4260125000000001 L 0.06525 1.4260125000000001 L 0.25875 1.8977625 L 0.36 1.6570125 L 0.267 1.4297625 M 1.2101403808593751 1.9120125000000001 L 1.2101403808593751 1.9585125 L 0.852390380859375 1.9585125 L 0.852390380859375 1.4260125000000001 L 1.203390380859375 1.4260125000000001 L 1.203390380859375 1.4725125000000001 L 0.904890380859375 1.4725125000000001 L 0.904890380859375 1.6645125 L 1.165140380859375 1.6645125 L 1.165140380859375 1.7087625000000002 L 0.904890380859375 1.7087625000000002 L 0.904890380859375 1.9120125000000001 L 1.2101403808593751 1.9120125000000001 M 1.71077197265625 1.8212625 Q 1.71077197265625 1.8512625 1.69877197265625 1.8763875 Q 1.68677197265625 1.9015125000000002 1.6665219726562501 1.9198875000000002 Q 1.64627197265625 1.9382625 1.6192719726562501 1.9483875000000002 Q 1.59227197265625 1.9585125 1.5615219726562501 1.9585125 L 1.3102719726562502 1.9585125 L 1.3102719726562502 1.4260125000000001 L 1.5667719726562501 1.4260125000000001 Q 1.59452197265625 1.4260125000000001 1.61702197265625 1.4380125000000001 Q 1.63952197265625 1.4500125000000001 1.6552719726562501 1.4691375 Q 1.67102197265625 1.4882625 1.6796469726562502 1.5126375 Q 1.68827197265625 1.5370125000000001 1.68827197265625 1.5617625000000002 Q 1.68827197265625 1.6022625000000001 1.6680219726562502 1.6356375 Q 1.64777197265625 1.6690125 1.61177197265625 1.6855125000000002 Q 1.6575219726562502 1.6990125 1.6841469726562501 1.7357625 Q 1.71077197265625 1.7725125000000002 1.71077197265625 1.8212625 M 1.65827197265625 1.8122625 Q 1.65827197265625 1.7927625 1.65152197265625 1.7743875 Q 1.6447719726562502 1.7560125000000002 1.6323969726562502 1.7421375000000001 Q 1.6200219726562501 1.7282625 1.6031469726562502 1.7196375000000002 Q 1.5862719726562502 1.7110125 1.5667719726562501 1.7110125 L 1.3627719726562502 1.7110125 L 1.3627719726562502 1.9127625000000001 L 1.5615219726562501 1.9127625000000001 Q 1.58177197265625 1.9127625000000001 1.59939697265625 1.9045125 Q 1.61702197265625 1.8962625000000002 1.63014697265625 1.8823875 Q 1.6432719726562501 1.8685125 1.65077197265625 1.8501375000000002 Q 1.65827197265625 1.8317625000000002 1.65827197265625 1.8122625 M 1.3627719726562502 1.4717625 L 1.3627719726562502 1.6682625 L 1.54577197265625 1.6682625 Q 1.56527197265625 1.6682625 1.58214697265625 1.6600125000000001 Q 1.59902197265625 1.6517625 1.61102197265625 1.6382625000000002 Q 1.62302197265625 1.6247625 1.62977197265625 1.6071375 Q 1.63652197265625 1.5895125 1.63652197265625 1.5700125 Q 1.63652197265625 1.5497625000000002 1.63014697265625 1.5317625000000001 Q 1.62377197265625 1.5137625000000001 1.61214697265625 1.5006375 Q 1.60052197265625 1.4875125 1.5847719726562501 1.4796375000000002 Q 1.56902197265625 1.4717625 1.5502719726562502 1.4717625 L 1.3627719726562502 1.4717625 M 2.003287353515625 1.9585125 L 2.003287353515625 1.4260125000000001 L 2.1840373535156252 1.4260125000000001 Q 2.2477873535156254 1.4260125000000001 2.295412353515625 1.4470125 Q 2.343037353515625 1.4680125000000002 2.3749123535156254 1.5040125 Q 2.4067873535156252 1.5400125 2.422912353515625 1.5883875 Q 2.439037353515625 1.6367625000000001 2.439037353515625 1.6915125 Q 2.439037353515625 1.7522625 2.4210373535156253 1.8013875000000001 Q 2.403037353515625 1.8505125 2.369662353515625 1.8853875000000002 Q 2.336287353515625 1.9202625000000002 2.289412353515625 1.9393875 Q 2.242537353515625 1.9585125 2.1840373535156252 1.9585125 L 2.003287353515625 1.9585125 M 2.3865373535156253 1.6915125 Q 2.3865373535156253 1.6435125000000002 2.3730373535156253 1.6033875000000002 Q 2.359537353515625 1.5632625 2.333662353515625 1.5340125000000002 Q 2.307787353515625 1.5047625 2.2702873535156254 1.4886375 Q 2.2327873535156253 1.4725125000000001 2.1840373535156252 1.4725125000000001 L 2.0557873535156252 1.4725125000000001 L 2.0557873535156252 1.9120125000000001 L 2.1840373535156252 1.9120125000000001 Q 2.2335373535156253 1.9120125000000001 2.2714123535156254 1.8951375000000001 Q 2.309287353515625 1.8782625000000002 2.334787353515625 1.8486375000000002 Q 2.3602873535156252 1.8190125000000001 2.3734123535156253 1.7788875000000002 Q 2.3865373535156253 1.7387625 2.3865373535156253 1.6915125 M 2.898432495117188 1.9120125000000001 L 2.898432495117188 1.9585125 L 2.5406824951171876 1.9585125 L 2.5406824951171876 1.4260125000000001 L 2.8916824951171876 1.4260125000000001 L 2.8916824951171876 1.4725125000000001 L 2.593182495117188 1.4725125000000001 L 2.593182495117188 1.6645125 L 2.853432495117188 1.6645125 L 2.853432495117188 1.7087625000000002 L 2.593182495117188 1.7087625000000002 L 2.593182495117188 1.9120125000000001 L 2.898432495117188 1.9120125000000001 M 3.298553100585938 1.5257625000000001 Q 3.276053100585938 1.5002625 3.238553100585938 1.4845125000000001 Q 3.2010531005859377 1.4687625 3.1530531005859377 1.4687625 Q 3.0825531005859377 1.4687625 3.050303100585938 1.4953875 Q 3.018053100585938 1.5220125000000002 3.018053100585938 1.5677625000000002 Q 3.018053100585938 1.5917625000000002 3.026678100585938 1.6071375 Q 3.0353031005859377 1.6225125 3.053303100585938 1.6337625 Q 3.0713031005859377 1.6450125 3.099428100585938 1.6532625 Q 3.1275531005859376 1.6615125000000002 3.1658031005859377 1.6697625 Q 3.208553100585938 1.6787625000000002 3.2426781005859375 1.6900125000000001 Q 3.276803100585938 1.7012625000000001 3.300803100585938 1.7181375 Q 3.324803100585938 1.7350125 3.3375531005859376 1.7590125 Q 3.3503031005859376 1.7830125000000001 3.3503031005859376 1.8190125000000001 Q 3.3503031005859376 1.8557625 3.336053100585938 1.8827625000000001 Q 3.321803100585938 1.9097625 3.296303100585938 1.9277625 Q 3.2708031005859377 1.9457625 3.2355531005859377 1.9543875000000002 Q 3.2003031005859377 1.9630125 3.158303100585938 1.9630125 Q 3.0345531005859376 1.9630125 2.9445531005859378 1.8857625 L 2.970803100585938 1.8430125000000002 Q 2.9850531005859375 1.8580125 3.004928100585938 1.8715125000000001 Q 3.0248031005859377 1.8850125000000002 3.0491781005859377 1.8951375000000001 Q 3.073553100585938 1.9052625 3.101303100585938 1.9108875 Q 3.1290531005859377 1.9165125 3.159803100585938 1.9165125 Q 3.2235531005859377 1.9165125 3.2591781005859377 1.8936375 Q 3.2948031005859377 1.8707625 3.2948031005859377 1.8242625000000001 Q 3.2948031005859377 1.7995125 3.284678100585938 1.7826375 Q 3.274553100585938 1.7657625000000001 3.254303100585938 1.7533875 Q 3.2340531005859376 1.7410125 3.204053100585938 1.7320125000000002 Q 3.1740531005859376 1.7230125 3.134303100585938 1.7140125000000002 Q 3.0923031005859376 1.7042625 3.0608031005859377 1.6937625 Q 3.029303100585938 1.6832625 3.007553100585938 1.6675125000000002 Q 2.9858031005859376 1.6517625 2.9749281005859376 1.6296375 Q 2.9640531005859376 1.6075125000000001 2.9640531005859376 1.5752625 Q 2.9640531005859376 1.5385125000000002 2.9779281005859377 1.5096375000000002 Q 2.991803100585938 1.4807625 3.017303100585938 1.4616375000000001 Q 3.042803100585938 1.4425125 3.077303100585938 1.4323875 Q 3.111803100585938 1.4222625 3.1538031005859377 1.4222625 Q 3.207053100585938 1.4222625 3.2486781005859378 1.4383875000000002 Q 3.2903031005859376 1.4545125 3.324053100585938 1.4837625 L 3.298553100585938 1.5257625000000001 M 3.443674072265625 1.9585125 L 3.443674072265625 1.4260125000000001 L 3.4961740722656254 1.4260125000000001 L 3.4961740722656254 1.9585125 L 3.443674072265625 1.9585125 M 4.015538452148438 1.8805125 Q 3.941288452148438 1.9622625 3.844538452148438 1.9622625 Q 3.790538452148438 1.9622625 3.745163452148438 1.9390125 Q 3.6997884521484377 1.9157625 3.6664134521484377 1.8775125000000001 Q 3.633038452148438 1.8392625 3.614288452148438 1.7908875000000002 Q 3.5955384521484377 1.7425125000000001 3.5955384521484377 1.6915125 Q 3.5955384521484377 1.6382625000000002 3.613913452148438 1.5895125 Q 3.6322884521484378 1.5407625 3.6652884521484377 1.5036375 Q 3.698288452148438 1.4665125 3.743288452148438 1.4443875 Q 3.788288452148438 1.4222625 3.8415384521484377 1.4222625 Q 3.880538452148438 1.4222625 3.9127884521484377 1.4308875 Q 3.945038452148438 1.4395125000000002 3.9701634521484377 1.4548875000000001 Q 3.9952884521484378 1.4702625 4.013663452148438 1.4916375000000002 Q 4.032038452148438 1.5130125 4.044788452148438 1.5385125000000002 L 4.004288452148438 1.5655125 Q 3.978038452148438 1.5160125 3.9360384521484377 1.4927625 Q 3.894038452148438 1.4695125 3.8407884521484377 1.4695125 Q 3.7965384521484378 1.4695125 3.7609134521484378 1.4882625 Q 3.7252884521484377 1.5070125 3.7001634521484377 1.5381375000000002 Q 3.675038452148438 1.5692625000000002 3.661538452148438 1.6093875 Q 3.648038452148438 1.6495125000000002 3.648038452148438 1.6922625 Q 3.648038452148438 1.7372625000000002 3.663413452148438 1.7777625000000001 Q 3.6787884521484377 1.8182625000000001 3.705788452148438 1.8486375000000002 Q 3.732788452148438 1.8790125000000002 3.7691634521484376 1.8970125000000002 Q 3.8055384521484377 1.9150125 3.848288452148438 1.9150125 Q 3.894038452148438 1.9150125 3.9356634521484377 1.8936375 Q 3.977288452148438 1.8722625000000002 4.015538452148438 1.8257625000000002 L 4.015538452148438 1.7372625000000002 L 3.897038452148438 1.7372625000000002 L 3.897038452148438 1.6967625000000002 L 4.059788452148438 1.6967625000000002 L 4.059788452148438 1.9585125 L 4.015538452148438 1.9585125 L 4.015538452148438 1.8805125 M 4.2214160156250005 1.5235125 L 4.2214160156250005 1.9585125 L 4.168916015625 1.9585125 L 4.168916015625 1.4260125000000001 L 4.209416015625 1.4260125000000001 L 4.561916015625 1.8692625 L 4.561916015625 1.4267625000000002 L 4.614416015625 1.4267625000000002 L 4.614416015625 1.9585125 L 4.568666015625 1.9585125 L 4.2214160156250005 1.5235125" fill="#1192dc" fill-rule="nonzero"></path></g><g clip-path="url(#SvgjsClipPath1002)"><g clip-path="url(#SvgjsClipPath1000e2ecaab1-5546-44cb-bad7-9dc812a0ccbb)"><path d=" M 1.913144614296454 -3.5958081865376457 L 2.695589101940158 -2.1386682821430316 L 3.8342706412516345 -4.615300630145491 C 3.6537416904424016 -4.7464764037762155 3.4559777577508615 -4.852117617255626 3.246572622480828 -4.929236194722019 Z" fill="#202020" transform="matrix(1,0,0,1,0,0)" fill-rule="nonzero"></path></g><g clip-path="url(#SvgjsClipPath1000e2ecaab1-5546-44cb-bad7-9dc812a0ccbb)"><path d=" M 2.8334014938474814 -1.881400747443453 L 3.555985386550746 -0.5365327144482395 C 4.340415466304494 -0.9569568552211241 4.8298622339283215 -1.7749167760464042 4.829552799794679 -2.664909423441654 C 4.8295836594106545 -3.352677170317993 4.535424404448816 -4.007612391041518 4.021301744553148 -4.464451930896724 Z" fill="#fbe585" transform="matrix(1,0,0,1,0,0)" fill-rule="nonzero"></path></g><g clip-path="url(#SvgjsClipPath1000e2ecaab1-5546-44cb-bad7-9dc812a0ccbb)"><path d=" M 1.7979462249221863 -3.8102421399687336 L 2.9951581237309814 -5.007454038777529 C 2.805750703918286 -5.05506313444761 2.6112711795706955 -5.07954057572976 2.415973611796144 -5.080350941060553 C 2.0166821437351055 -5.0809034599104015 1.6235312606983214 -4.982067156523712 1.2719711307121895 -4.792754038257819 Z" fill="#facf0e" transform="matrix(1,0,0,1,0,0)" fill-rule="nonzero"></path></g><g clip-path="url(#SvgjsClipPath1000e2ecaab1-5546-44cb-bad7-9dc812a0ccbb)"><path d=" M 1.6247495702278472 -3.6381096736288905 L 1.070573484623686 -4.6706384245793195 C 0.4005237359694412 -4.223000009982491 -0.00158308179785293 -3.470197747623217 -0.0010641883544965846 -2.664377329264401 C -0.0002700841960168586 -2.4689910481233626 0.024207440515599882 -2.274421526875473 0.07183271392849931 -2.0849267702410645 Z" fill="#facf0e" transform="matrix(1,0,0,1,0,0)" fill-rule="nonzero"></path></g><g clip-path="url(#SvgjsClipPath1000e2ecaab1-5546-44cb-bad7-9dc812a0ccbb)"><path d=" M 2.573207441173037 -1.8736853818733503 L 1.7410121479566125 -3.423675720197804 L 0.1503166050726604 -1.8327141302252254 C 0.4295642453586908 -1.0732460847554242 1.070440086245497 -0.5039781568989801 1.8575407727740036 -0.316245725067418 Z" fill="#1192dc" transform="matrix(1,0,0,1,0,0)" fill-rule="nonzero"></path></g><g clip-path="url(#SvgjsClipPath1000e2ecaab1-5546-44cb-bad7-9dc812a0ccbb)"><path d=" M 2.7115519272576094 -1.6161518000851478 L 2.093790587472271 -0.27341214379892875 C 2.2002026903827767 -0.25859086160573685 2.3074728693908093 -0.25077000348419176 2.414909423441656 -0.25000000000000444 C 2.7345739701340794 -0.249738970361701 3.0510996634633787 -0.31304410902756086 3.3460742336262728 -0.4362329620369261 Z" fill="#1192dc" transform="matrix(1,0,0,1,0,0)" fill-rule="nonzero"></path></g></g></g><defs><clipPath id="SvgjsClipPath1002"><path d=" M 0 -5.0792867527060555 h 4.8292867527060555 v 4.8292867527060555 h -4.8292867527060555 Z"></path></clipPath><clipPath id="SvgjsClipPath1000e2ecaab1-5546-44cb-bad7-9dc812a0ccbb"><path d=" M 0 -5.0792867527060555 L 4.8292867527060555 -5.0792867527060555 L 4.8292867527060555 -0.25 L 0 -0.25 Z"></path></clipPath></defs></svg>