<svg xmlns="http://www.w3.org/2000/svg" version="1.1" xmlns:xlink="http://www.w3.org/1999/xlink" xmlns:svgjs="http://svgjs.dev/svgjs" viewBox="0 0 7.896922265859265 9.241949949374494"><g transform="matrix(1,0,0,1,0.7114768799999451,6.56809806937455)"><g><path d=" M 0.1485 1.0649999999999997 Q 0.132 1.0649999999999997 0.1215 1.0544999999999998 Q 0.111 1.0439999999999998 0.111 1.0274999999999996 L 0.111 0.05249999999999977 Q 0.111 0.03599999999999981 0.1215 0.025499999999999634 Q 0.132 0.01499999999999968 0.1485 0.01499999999999968 L 0.3075 0.01499999999999968 Q 0.324 0.01499999999999968 0.3345 0.025499999999999634 Q 0.34500000000000003 0.03599999999999981 0.34500000000000003 0.05249999999999977 L 0.34500000000000003 0.39449999999999974 L 0.654 0.04349999999999965 Q 0.66 0.03449999999999975 0.67425 0.024749999999999606 Q 0.6885 0.01499999999999968 0.7125 0.01499999999999968 L 0.894 0.01499999999999968 Q 0.9075 0.01499999999999968 0.9165 0.024749999999999606 Q 0.9255 0.03449999999999975 0.9255 0.046499999999999764 Q 0.9255 0.05699999999999972 0.9195 0.06449999999999978 L 0.534 0.5174999999999997 L 0.9480000000000001 1.0154999999999996 Q 0.9540000000000001 1.0214999999999996 0.9540000000000001 1.0334999999999996 Q 0.9540000000000001 1.0454999999999997 0.9450000000000001 1.0552499999999998 Q 0.936 1.0649999999999997 0.9225 1.0649999999999997 L 0.735 1.0649999999999997 Q 0.708 1.0649999999999997 0.6945 1.0529999999999997 Q 0.681 1.0409999999999997 0.6765 1.0364999999999998 L 0.34500000000000003 0.6524999999999996 L 0.34500000000000003 1.0274999999999996 Q 0.34500000000000003 1.0439999999999998 0.3345 1.0544999999999998 Q 0.324 1.0649999999999997 0.3075 1.0649999999999997 L 0.1485 1.0649999999999997 M 1.505972900390625 1.0799999999999996 Q 1.373972900390625 1.0799999999999996 1.274972900390625 1.0357499999999997 Q 1.175972900390625 0.9914999999999997 1.121972900390625 0.8992499999999997 Q 1.067972900390625 0.8069999999999997 1.067972900390625 0.6644999999999996 L 1.067972900390625 0.05249999999999977 Q 1.067972900390625 0.03599999999999981 1.078472900390625 0.025499999999999634 Q 1.088972900390625 0.01499999999999968 1.105472900390625 0.01499999999999968 L 1.268972900390625 0.01499999999999968 Q 1.2854729003906251 0.01499999999999968 1.295972900390625 0.025499999999999634 Q 1.306472900390625 0.03599999999999981 1.306472900390625 0.05249999999999977 L 1.306472900390625 0.6629999999999997 Q 1.306472900390625 0.7739999999999998 1.358972900390625 0.8279999999999997 Q 1.411472900390625 0.8819999999999997 1.505972900390625 0.8819999999999997 Q 1.598972900390625 0.8819999999999997 1.651472900390625 0.8279999999999997 Q 1.703972900390625 0.7739999999999998 1.703972900390625 0.6629999999999997 L 1.703972900390625 0.05249999999999977 Q 1.703972900390625 0.03599999999999981 1.715222900390625 0.025499999999999634 Q 1.726472900390625 0.01499999999999968 1.741472900390625 0.01499999999999968 L 1.9064729003906251 0.01499999999999968 Q 1.921472900390625 0.01499999999999968 1.931972900390625 0.025499999999999634 Q 1.9424729003906251 0.03599999999999981 1.9424729003906251 0.05249999999999977 L 1.9424729003906251 0.6644999999999996 Q 1.9424729003906251 0.8069999999999997 1.8884729003906249 0.8992499999999997 Q 1.834472900390625 0.9914999999999997 1.736972900390625 1.0357499999999997 Q 1.639472900390625 1.0799999999999996 1.505972900390625 1.0799999999999996 M 2.192964111328125 1.0649999999999997 Q 2.176464111328125 1.0649999999999997 2.165964111328125 1.0544999999999998 Q 2.155464111328125 1.0439999999999998 2.155464111328125 1.0274999999999996 L 2.155464111328125 0.05249999999999977 Q 2.155464111328125 0.03599999999999981 2.165964111328125 0.025499999999999634 Q 2.176464111328125 0.01499999999999968 2.192964111328125 0.01499999999999968 L 2.329464111328125 0.01499999999999968 Q 2.351964111328125 0.01499999999999968 2.362464111328125 0.025499999999999634 Q 2.372964111328125 0.03599999999999981 2.375964111328125 0.04199999999999959 L 2.776464111328125 0.6674999999999998 L 2.776464111328125 0.05249999999999977 Q 2.776464111328125 0.03599999999999981 2.786964111328125 0.025499999999999634 Q 2.797464111328125 0.01499999999999968 2.812464111328125 0.01499999999999968 L 2.9654641113281253 0.01499999999999968 Q 2.981964111328125 0.01499999999999968 2.992464111328125 0.025499999999999634 Q 3.002964111328125 0.03599999999999981 3.002964111328125 0.05249999999999977 L 3.002964111328125 1.0274999999999996 Q 3.002964111328125 1.0424999999999998 2.992464111328125 1.0537499999999997 Q 2.981964111328125 1.0649999999999997 2.9654641113281253 1.0649999999999997 L 2.827464111328125 1.0649999999999997 Q 2.804964111328125 1.0649999999999997 2.795214111328125 1.0537499999999997 Q 2.785464111328125 1.0424999999999998 2.780964111328125 1.0379999999999998 L 2.381964111328125 0.4319999999999997 L 2.381964111328125 1.0274999999999996 Q 2.381964111328125 1.0439999999999998 2.371464111328125 1.0544999999999998 Q 2.360964111328125 1.0649999999999997 2.344464111328125 1.0649999999999997 L 2.192964111328125 1.0649999999999997 M 3.262483154296875 1.0649999999999997 Q 3.245983154296875 1.0649999999999997 3.235483154296875 1.0544999999999998 Q 3.224983154296875 1.0439999999999998 3.224983154296875 1.0274999999999996 L 3.224983154296875 0.05249999999999977 Q 3.224983154296875 0.03599999999999981 3.235483154296875 0.025499999999999634 Q 3.245983154296875 0.01499999999999968 3.262483154296875 0.01499999999999968 L 3.431983154296875 0.01499999999999968 Q 3.4484831542968752 0.01499999999999968 3.458983154296875 0.025499999999999634 Q 3.469483154296875 0.03599999999999981 3.469483154296875 0.05249999999999977 L 3.469483154296875 1.0274999999999996 Q 3.469483154296875 1.0439999999999998 3.458983154296875 1.0544999999999998 Q 3.4484831542968752 1.0649999999999997 3.431983154296875 1.0649999999999997 L 3.262483154296875 1.0649999999999997 M 3.7289443359375 1.0649999999999997 Q 3.7124443359375 1.0649999999999997 3.7019443359375 1.0544999999999998 Q 3.6914443359375 1.0439999999999998 3.6914443359375 1.0274999999999996 L 3.6914443359375 0.05249999999999977 Q 3.6914443359375 0.03599999999999981 3.7019443359375 0.025499999999999634 Q 3.7124443359375 0.01499999999999968 3.7289443359375 0.01499999999999968 L 3.8879443359375 0.01499999999999968 Q 3.9044443359375 0.01499999999999968 3.9149443359375002 0.025499999999999634 Q 3.9254443359375 0.03599999999999981 3.9254443359375 0.05249999999999977 L 3.9254443359375 0.39449999999999974 L 4.2344443359375 0.04349999999999965 Q 4.2404443359375 0.03449999999999975 4.2546943359375 0.024749999999999606 Q 4.2689443359375 0.01499999999999968 4.2929443359375 0.01499999999999968 L 4.4744443359375 0.01499999999999968 Q 4.4879443359375 0.01499999999999968 4.4969443359375 0.024749999999999606 Q 4.5059443359374995 0.03449999999999975 4.5059443359374995 0.046499999999999764 Q 4.5059443359374995 0.05699999999999972 4.4999443359375 0.06449999999999978 L 4.1144443359375 0.5174999999999997 L 4.5284443359375 1.0154999999999996 Q 4.5344443359375 1.0214999999999996 4.5344443359375 1.0334999999999996 Q 4.5344443359375 1.0454999999999997 4.5254443359375 1.0552499999999998 Q 4.5164443359375 1.0649999999999997 4.5029443359375 1.0649999999999997 L 4.3154443359375 1.0649999999999997 Q 4.2884443359375 1.0649999999999997 4.2749443359375 1.0529999999999997 Q 4.2614443359375 1.0409999999999997 4.2569443359375 1.0364999999999998 L 3.9254443359375 0.6524999999999996 L 3.9254443359375 1.0274999999999996 Q 3.9254443359375 1.0439999999999998 3.9149443359375002 1.0544999999999998 Q 3.9044443359375 1.0649999999999997 3.8879443359375 1.0649999999999997 L 3.7289443359375 1.0649999999999997 M 4.6994033203125 1.0649999999999997 Q 4.6829033203125 1.0649999999999997 4.6724033203125 1.0544999999999998 Q 4.6619033203125 1.0439999999999998 4.6619033203125 1.0274999999999996 L 4.6619033203125 0.05249999999999977 Q 4.6619033203125 0.03599999999999981 4.6724033203125 0.025499999999999634 Q 4.6829033203125 0.01499999999999968 4.6994033203125 0.01499999999999968 L 4.8659033203125 0.01499999999999968 Q 4.8824033203125 0.01499999999999968 4.8929033203125 0.025499999999999634 Q 4.9034033203125 0.03599999999999981 4.9034033203125 0.05249999999999977 L 4.9034033203125 0.8639999999999997 L 5.3684033203125 0.8639999999999997 Q 5.3849033203125 0.8639999999999997 5.3954033203125 0.8744999999999997 Q 5.4059033203125 0.8849999999999998 5.4059033203125 0.9014999999999997 L 5.4059033203125 1.0274999999999996 Q 5.4059033203125 1.0439999999999998 5.3954033203125 1.0544999999999998 Q 5.3849033203125 1.0649999999999997 5.3684033203125 1.0649999999999997 L 4.6994033203125 1.0649999999999997 M 5.9474641113281255 1.0799999999999996 Q 5.810964111328125 1.0799999999999996 5.711964111328125 1.0349999999999997 Q 5.612964111328125 0.9899999999999998 5.557464111328125 0.8992499999999997 Q 5.501964111328125 0.8084999999999998 5.497464111328125 0.6704999999999997 Q 5.495964111328125 0.6059999999999997 5.495964111328125 0.5422499999999997 Q 5.495964111328125 0.4784999999999997 5.497464111328125 0.41249999999999976 Q 5.501964111328125 0.27749999999999975 5.558214111328125 0.1852499999999997 Q 5.614464111328125 0.09299999999999975 5.714214111328125 0.046499999999999764 Q 5.813964111328125 -2.220446049250313e-16 5.9474641113281255 -2.220446049250313e-16 Q 6.079464111328125 -2.220446049250313e-16 6.179214111328125 0.046499999999999764 Q 6.278964111328125 0.09299999999999975 6.335964111328125 0.1852499999999997 Q 6.392964111328125 0.27749999999999975 6.395964111328125 0.41249999999999976 Q 6.398964111328125 0.4784999999999997 6.398964111328125 0.5422499999999997 Q 6.398964111328125 0.6059999999999997 6.395964111328125 0.6704999999999997 Q 6.3914641113281245 0.8084999999999998 6.335964111328125 0.8992499999999997 Q 6.280464111328125 0.9899999999999998 6.1814641113281255 1.0349999999999997 Q 6.082464111328125 1.0799999999999996 5.9474641113281255 1.0799999999999996 M 5.9474641113281255 0.8864999999999997 Q 6.034464111328125 0.8864999999999997 6.090714111328125 0.8332499999999997 Q 6.146964111328125 0.7799999999999997 6.149964111328125 0.6629999999999997 Q 6.152964111328125 0.5969999999999998 6.152964111328125 0.5392499999999997 Q 6.152964111328125 0.4814999999999997 6.149964111328125 0.4169999999999997 Q 6.148464111328125 0.33899999999999975 6.121464111328125 0.28949999999999976 Q 6.094464111328125 0.23999999999999966 6.050214111328125 0.21674999999999967 Q 6.005964111328125 0.19349999999999967 5.9474641113281255 0.19349999999999967 Q 5.888964111328125 0.19349999999999967 5.843964111328125 0.21674999999999967 Q 5.798964111328125 0.23999999999999966 5.772714111328125 0.28949999999999976 Q 5.746464111328125 0.33899999999999975 5.743464111328125 0.4169999999999997 Q 5.741964111328125 0.4814999999999997 5.741964111328125 0.5392499999999997 Q 5.741964111328125 0.5969999999999998 5.743464111328125 0.6629999999999997 Q 5.747964111328125 0.7799999999999997 5.803464111328125 0.8332499999999997 Q 5.858964111328125 0.8864999999999997 5.9474641113281255 0.8864999999999997" fill="#000000" fill-rule="nonzero"></path></g><g><path d=" M 1.1783811035156253 1.9548749999999997 Q 1.1686311035156254 1.9548749999999997 1.1630061035156252 1.9496249999999997 Q 1.1573811035156252 1.9443749999999997 1.1551311035156253 1.9346249999999996 L 1.0583811035156252 1.4531249999999996 Q 1.0576311035156252 1.4501249999999997 1.0576311035156252 1.4478749999999998 Q 1.0576311035156252 1.4456249999999997 1.0576311035156252 1.4448749999999997 Q 1.0576311035156252 1.4388749999999997 1.0621311035156253 1.4343749999999997 Q 1.0666311035156253 1.4298749999999996 1.0726311035156253 1.4298749999999996 L 1.1116311035156252 1.4298749999999996 Q 1.1273811035156251 1.4298749999999996 1.1296311035156252 1.4426249999999996 L 1.2061311035156252 1.8296249999999996 L 1.2871311035156252 1.5641249999999998 Q 1.2893811035156253 1.5573749999999997 1.2950061035156253 1.5517499999999997 Q 1.3006311035156253 1.5461249999999997 1.3111311035156252 1.5461249999999997 L 1.3388811035156252 1.5461249999999997 Q 1.3501311035156252 1.5461249999999997 1.3553811035156254 1.5517499999999997 Q 1.3606311035156253 1.5573749999999997 1.3621311035156252 1.5641249999999998 L 1.4438811035156252 1.8296249999999996 L 1.5196311035156254 1.4426249999999996 Q 1.5218811035156252 1.4298749999999996 1.5383811035156252 1.4298749999999996 L 1.5773811035156253 1.4298749999999996 Q 1.583381103515625 1.4298749999999996 1.5878811035156253 1.4343749999999997 Q 1.5923811035156252 1.4388749999999997 1.5923811035156252 1.4448749999999997 Q 1.5923811035156252 1.4456249999999997 1.5920061035156252 1.4478749999999998 Q 1.5916311035156254 1.4501249999999997 1.5916311035156254 1.4531249999999996 L 1.4948811035156253 1.9346249999999996 Q 1.4926311035156252 1.9443749999999997 1.4870061035156252 1.9496249999999997 Q 1.4813811035156252 1.9548749999999997 1.4716311035156253 1.9548749999999997 L 1.4423811035156253 1.9548749999999997 Q 1.4318811035156251 1.9548749999999997 1.4258811035156254 1.9496249999999997 Q 1.4198811035156251 1.9443749999999997 1.4176311035156253 1.9361249999999997 L 1.3246311035156253 1.6503749999999997 L 1.2323811035156254 1.9361249999999997 Q 1.2293811035156252 1.9443749999999997 1.2237561035156252 1.9496249999999997 Q 1.2181311035156253 1.9548749999999997 1.2076311035156253 1.9548749999999997 L 1.1783811035156253 1.9548749999999997 M 1.7090251464843753 1.9548749999999997 Q 1.7007751464843752 1.9548749999999997 1.6962751464843753 1.9499999999999997 Q 1.6917751464843753 1.9451249999999998 1.6917751464843753 1.9376249999999997 L 1.6917751464843753 1.4478749999999998 Q 1.6917751464843753 1.4396249999999997 1.6962751464843753 1.4347499999999997 Q 1.7007751464843752 1.4298749999999996 1.7090251464843753 1.4298749999999996 L 2.0187751464843755 1.4298749999999996 Q 2.0270251464843754 1.4298749999999996 2.031525146484375 1.4347499999999997 Q 2.0360251464843753 1.4396249999999997 2.0360251464843753 1.4478749999999998 L 2.0360251464843753 1.4763749999999995 Q 2.0360251464843753 1.4846249999999996 2.031525146484375 1.4891249999999996 Q 2.0270251464843754 1.4936249999999998 2.0187751464843755 1.4936249999999998 L 1.7637751464843754 1.4936249999999998 L 1.7637751464843754 1.6578749999999998 L 2.0022751464843753 1.6578749999999998 Q 2.010525146484375 1.6578749999999998 2.0150251464843754 1.6627499999999997 Q 2.0195251464843755 1.6676249999999997 2.0195251464843755 1.6758749999999996 L 2.0195251464843755 1.7036249999999997 Q 2.0195251464843755 1.7111249999999998 2.0150251464843754 1.7159999999999997 Q 2.010525146484375 1.7208749999999997 2.0022751464843753 1.7208749999999997 L 1.7637751464843754 1.7208749999999997 L 1.7637751464843754 1.8911249999999997 L 2.0247751464843753 1.8911249999999997 Q 2.033025146484375 1.8911249999999997 2.0375251464843753 1.8956249999999997 Q 2.0420251464843755 1.9001249999999996 2.0420251464843755 1.9083749999999997 L 2.0420251464843755 1.9376249999999997 Q 2.0420251464843755 1.9451249999999998 2.0375251464843753 1.9499999999999997 Q 2.033025146484375 1.9548749999999997 2.0247751464843753 1.9548749999999997 L 1.7090251464843753 1.9548749999999997 M 2.164663696289063 1.9548749999999997 Q 2.156413696289063 1.9548749999999997 2.151913696289063 1.9499999999999997 Q 2.1474136962890626 1.9451249999999998 2.1474136962890626 1.9376249999999997 L 2.1474136962890626 1.4478749999999998 Q 2.1474136962890626 1.4396249999999997 2.151913696289063 1.4347499999999997 Q 2.156413696289063 1.4298749999999996 2.164663696289063 1.4298749999999996 L 2.3701636962890626 1.4298749999999996 Q 2.426413696289063 1.4298749999999996 2.462038696289063 1.4482499999999998 Q 2.497663696289063 1.4666249999999996 2.514538696289063 1.4981249999999997 Q 2.531413696289063 1.5296249999999998 2.531413696289063 1.5686249999999997 Q 2.531413696289063 1.5993749999999998 2.521288696289063 1.6214999999999997 Q 2.5111636962890627 1.6436249999999997 2.496163696289063 1.6574999999999998 Q 2.481163696289063 1.6713749999999996 2.4669136962890628 1.6788749999999997 Q 2.496163696289063 1.6931249999999998 2.519038696289063 1.7253749999999997 Q 2.541913696289063 1.7576249999999998 2.541913696289063 1.8033749999999997 Q 2.541913696289063 1.8446249999999997 2.5231636962890627 1.8791249999999997 Q 2.504413696289063 1.9136249999999997 2.4672886962890628 1.9342499999999998 Q 2.4301636962890627 1.9548749999999997 2.376163696289063 1.9548749999999997 L 2.164663696289063 1.9548749999999997 M 2.2209136962890628 1.8941249999999996 L 2.366413696289063 1.8941249999999996 Q 2.414413696289063 1.8941249999999996 2.4406636962890627 1.8678749999999997 Q 2.4669136962890628 1.8416249999999996 2.4669136962890628 1.8033749999999997 Q 2.4669136962890628 1.7636249999999998 2.4406636962890627 1.7377499999999997 Q 2.414413696289063 1.7118749999999996 2.366413696289063 1.7118749999999996 L 2.2209136962890628 1.7118749999999996 L 2.2209136962890628 1.8941249999999996 M 2.2209136962890628 1.6518749999999998 L 2.3589136962890627 1.6518749999999998 Q 2.4069136962890627 1.6518749999999998 2.4316636962890628 1.6297499999999996 Q 2.456413696289063 1.6076249999999996 2.456413696289063 1.5693749999999997 Q 2.456413696289063 1.5311249999999996 2.4316636962890628 1.5108749999999997 Q 2.4069136962890627 1.4906249999999996 2.3589136962890627 1.4906249999999996 L 2.2209136962890628 1.4906249999999996 L 2.2209136962890628 1.6518749999999998 M 2.8516823730468754 1.9548749999999997 Q 2.8434323730468756 1.9548749999999997 2.8389323730468754 1.9499999999999997 Q 2.8344323730468752 1.9451249999999998 2.8344323730468752 1.9376249999999997 L 2.8344323730468752 1.4478749999999998 Q 2.8344323730468752 1.4396249999999997 2.8389323730468754 1.4347499999999997 Q 2.8434323730468756 1.4298749999999996 2.8516823730468754 1.4298749999999996 L 3.0219323730468757 1.4298749999999996 Q 3.0991823730468755 1.4298749999999996 3.1464323730468755 1.4531249999999996 Q 3.1936823730468755 1.4763749999999995 3.2154323730468755 1.5217499999999997 Q 3.2371823730468754 1.5671249999999997 3.2379323730468754 1.6331249999999997 Q 3.2386823730468755 1.6668749999999997 3.2386823730468755 1.6923749999999997 Q 3.2386823730468755 1.7178749999999996 3.2379323730468754 1.7508749999999997 Q 3.2364323730468754 1.8198749999999997 3.2150573730468754 1.8652499999999996 Q 3.1936823730468755 1.9106249999999998 3.1475573730468756 1.9327499999999997 Q 3.1014323730468756 1.9548749999999997 3.0256823730468754 1.9548749999999997 L 2.8516823730468754 1.9548749999999997 M 2.9079323730468754 1.8911249999999997 L 3.0219323730468757 1.8911249999999997 Q 3.0736823730468754 1.8911249999999997 3.1044323730468752 1.8768749999999996 Q 3.1351823730468755 1.8626249999999998 3.1490573730468756 1.8311249999999997 Q 3.1629323730468752 1.7996249999999998 3.1636823730468753 1.7478749999999996 Q 3.1651823730468753 1.7253749999999997 3.1651823730468753 1.7084999999999997 Q 3.1651823730468753 1.6916249999999997 3.1651823730468753 1.6747499999999997 Q 3.1651823730468753 1.6578749999999998 3.1636823730468753 1.6361249999999996 Q 3.1621823730468757 1.5633749999999997 3.1291823730468753 1.5284999999999997 Q 3.0961823730468754 1.4936249999999998 3.0181823730468755 1.4936249999999998 L 2.9079323730468754 1.4936249999999998 L 2.9079323730468754 1.8911249999999997 M 3.369576782226563 1.9548749999999997 Q 3.361326782226563 1.9548749999999997 3.356826782226563 1.9499999999999997 Q 3.3523267822265628 1.9451249999999998 3.3523267822265628 1.9376249999999997 L 3.3523267822265628 1.4478749999999998 Q 3.3523267822265628 1.4396249999999997 3.356826782226563 1.4347499999999997 Q 3.361326782226563 1.4298749999999996 3.369576782226563 1.4298749999999996 L 3.679326782226563 1.4298749999999996 Q 3.687576782226563 1.4298749999999996 3.6920767822265628 1.4347499999999997 Q 3.696576782226563 1.4396249999999997 3.696576782226563 1.4478749999999998 L 3.696576782226563 1.4763749999999995 Q 3.696576782226563 1.4846249999999996 3.6920767822265628 1.4891249999999996 Q 3.687576782226563 1.4936249999999998 3.679326782226563 1.4936249999999998 L 3.424326782226563 1.4936249999999998 L 3.424326782226563 1.6578749999999998 L 3.662826782226563 1.6578749999999998 Q 3.671076782226563 1.6578749999999998 3.675576782226563 1.6627499999999997 Q 3.680076782226563 1.6676249999999997 3.680076782226563 1.6758749999999996 L 3.680076782226563 1.7036249999999997 Q 3.680076782226563 1.7111249999999998 3.675576782226563 1.7159999999999997 Q 3.671076782226563 1.7208749999999997 3.662826782226563 1.7208749999999997 L 3.424326782226563 1.7208749999999997 L 3.424326782226563 1.8911249999999997 L 3.685326782226563 1.8911249999999997 Q 3.693576782226563 1.8911249999999997 3.698076782226563 1.8956249999999997 Q 3.702576782226563 1.9001249999999996 3.702576782226563 1.9083749999999997 L 3.702576782226563 1.9376249999999997 Q 3.702576782226563 1.9451249999999998 3.698076782226563 1.9499999999999997 Q 3.693576782226563 1.9548749999999997 3.685326782226563 1.9548749999999997 L 3.369576782226563 1.9548749999999997 M 3.9767153320312505 1.9623749999999998 Q 3.9114653320312507 1.9623749999999998 3.8672153320312503 1.9421249999999997 Q 3.8229653320312504 1.9218749999999998 3.7993403320312504 1.8899999999999997 Q 3.7757153320312504 1.8581249999999998 3.7742153320312504 1.8228749999999998 Q 3.7742153320312504 1.8168749999999996 3.7790903320312506 1.8119999999999996 Q 3.7839653320312503 1.8071249999999996 3.7907153320312506 1.8071249999999996 L 3.8289653320312507 1.8071249999999996 Q 3.8379653320312506 1.8071249999999996 3.8424653320312503 1.8116249999999996 Q 3.8469653320312505 1.8161249999999998 3.8484653320312505 1.8221249999999998 Q 3.8529653320312507 1.8401249999999998 3.8672153320312503 1.8577499999999998 Q 3.8814653320312504 1.8753749999999998 3.9080903320312506 1.8869999999999998 Q 3.9347153320312507 1.8986249999999998 3.9767153320312505 1.8986249999999998 Q 4.041215332031251 1.8986249999999998 4.071590332031251 1.8757499999999996 Q 4.10196533203125 1.8528749999999996 4.10196533203125 1.8146249999999997 Q 4.10196533203125 1.7883749999999996 4.085840332031251 1.7722499999999997 Q 4.069715332031251 1.7561249999999997 4.0367153320312505 1.7433749999999997 Q 4.00371533203125 1.7306249999999996 3.9512153320312504 1.7156249999999997 Q 3.8964653320312506 1.6998749999999996 3.8604653320312505 1.6811249999999998 Q 3.8244653320312505 1.6623749999999997 3.8068403320312507 1.6346249999999998 Q 3.7892153320312505 1.6068749999999996 3.7892153320312505 1.5641249999999998 Q 3.7892153320312505 1.5236249999999996 3.8109653320312504 1.4917499999999997 Q 3.8327153320312504 1.4598749999999998 3.8739653320312506 1.4411249999999995 Q 3.9152153320312504 1.4223749999999997 3.9729653320312504 1.4223749999999997 Q 4.019465332031251 1.4223749999999997 4.05434033203125 1.4347499999999997 Q 4.089215332031251 1.4471249999999998 4.112465332031251 1.4677499999999997 Q 4.135715332031251 1.4883749999999996 4.14771533203125 1.5119999999999996 Q 4.159715332031251 1.5356249999999996 4.160465332031251 1.5581249999999998 Q 4.160465332031251 1.5633749999999997 4.156715332031251 1.5682499999999997 Q 4.1529653320312505 1.5731249999999997 4.14471533203125 1.5731249999999997 L 4.1049653320312505 1.5731249999999997 Q 4.09971533203125 1.5731249999999997 4.09409033203125 1.5701249999999998 Q 4.088465332031251 1.5671249999999997 4.085465332031251 1.5588749999999996 Q 4.0809653320312504 1.5281249999999997 4.05096533203125 1.5071249999999996 Q 4.020965332031251 1.4861249999999997 3.9729653320312504 1.4861249999999997 Q 3.9242153320312507 1.4861249999999997 3.8938403320312505 1.5048749999999997 Q 3.8634653320312506 1.5236249999999996 3.8634653320312506 1.5633749999999997 Q 3.8634653320312506 1.5888749999999998 3.8777153320312507 1.6057499999999996 Q 3.8919653320312504 1.6226249999999998 3.9227153320312507 1.6353749999999998 Q 3.9534653320312505 1.6481249999999996 4.00296533203125 1.6623749999999997 Q 4.062965332031251 1.6788749999999997 4.10121533203125 1.6972499999999997 Q 4.139465332031251 1.7156249999999997 4.157840332031251 1.7429999999999997 Q 4.1762153320312505 1.7703749999999996 4.1762153320312505 1.8131249999999997 Q 4.1762153320312505 1.8603749999999997 4.1514653320312505 1.8937499999999996 Q 4.12671533203125 1.9271249999999998 4.0820903320312505 1.9447499999999998 Q 4.037465332031251 1.9623749999999998 3.9767153320312505 1.9623749999999998 M 4.292847290039062 1.9548749999999997 Q 4.284597290039063 1.9548749999999997 4.280097290039063 1.9499999999999997 Q 4.275597290039062 1.9451249999999998 4.275597290039062 1.9376249999999997 L 4.275597290039062 1.4471249999999998 Q 4.275597290039062 1.4396249999999997 4.280097290039063 1.4347499999999997 Q 4.284597290039063 1.4298749999999996 4.292847290039062 1.4298749999999996 L 4.332597290039063 1.4298749999999996 Q 4.340847290039062 1.4298749999999996 4.345347290039062 1.4347499999999997 Q 4.349847290039063 1.4396249999999997 4.349847290039063 1.4471249999999998 L 4.349847290039063 1.9376249999999997 Q 4.349847290039063 1.9451249999999998 4.345347290039062 1.9499999999999997 Q 4.340847290039062 1.9548749999999997 4.332597290039063 1.9548749999999997 L 4.292847290039062 1.9548749999999997 M 4.67272998046875 1.9623749999999998 Q 4.60597998046875 1.9623749999999998 4.55985498046875 1.9376249999999997 Q 4.51372998046875 1.9128749999999997 4.48935498046875 1.8678749999999997 Q 4.46497998046875 1.8228749999999998 4.46197998046875 1.7621249999999997 Q 4.46122998046875 1.7291249999999998 4.46122998046875 1.6919999999999997 Q 4.46122998046875 1.6548749999999997 4.46197998046875 1.6211249999999997 Q 4.46497998046875 1.5603749999999996 4.48935498046875 1.5157499999999997 Q 4.51372998046875 1.4711249999999998 4.56022998046875 1.4467499999999998 Q 4.60672998046875 1.4223749999999997 4.67272998046875 1.4223749999999997 Q 4.72522998046875 1.4223749999999997 4.76422998046875 1.4373749999999998 Q 4.80322998046875 1.4523749999999995 4.82835498046875 1.4752499999999997 Q 4.85347998046875 1.4981249999999997 4.86585498046875 1.5228749999999998 Q 4.87822998046875 1.5476249999999996 4.87897998046875 1.5663749999999996 Q 4.87972998046875 1.5731249999999997 4.87522998046875 1.5772499999999998 Q 4.8707299804687505 1.5813749999999998 4.86322998046875 1.5813749999999998 L 4.81897998046875 1.5813749999999998 Q 4.81147998046875 1.5813749999999998 4.80810498046875 1.5783749999999996 Q 4.80472998046875 1.5753749999999997 4.8017299804687505 1.5678749999999997 Q 4.79497998046875 1.5483749999999996 4.779604980468751 1.5296249999999998 Q 4.76422998046875 1.5108749999999997 4.73835498046875 1.4984999999999997 Q 4.71247998046875 1.4861249999999997 4.67272998046875 1.4861249999999997 Q 4.6127299804687505 1.4861249999999997 4.57635498046875 1.5183749999999998 Q 4.53997998046875 1.5506249999999997 4.53697998046875 1.6248749999999996 Q 4.53472998046875 1.6916249999999997 4.53697998046875 1.7583749999999996 Q 4.53997998046875 1.8333749999999998 4.57672998046875 1.8659999999999997 Q 4.6134799804687505 1.8986249999999998 4.67272998046875 1.8986249999999998 Q 4.71247998046875 1.8986249999999998 4.74360498046875 1.8836249999999997 Q 4.77472998046875 1.8686249999999998 4.79272998046875 1.8382499999999997 Q 4.81072998046875 1.8078749999999997 4.81072998046875 1.7606249999999997 L 4.81072998046875 1.7291249999999998 L 4.69822998046875 1.7291249999999998 Q 4.69072998046875 1.7291249999999998 4.685854980468751 1.7242499999999996 Q 4.68097998046875 1.7193749999999997 4.68097998046875 1.7111249999999998 L 4.68097998046875 1.6871249999999998 Q 4.68097998046875 1.6788749999999997 4.685854980468751 1.6739999999999997 Q 4.69072998046875 1.6691249999999997 4.69822998046875 1.6691249999999997 L 4.86772998046875 1.6691249999999997 Q 4.87597998046875 1.6691249999999997 4.88047998046875 1.6739999999999997 Q 4.88497998046875 1.6788749999999997 4.88497998046875 1.6871249999999998 L 4.88497998046875 1.7591249999999996 Q 4.88497998046875 1.8206249999999997 4.85985498046875 1.8663749999999997 Q 4.83472998046875 1.9121249999999996 4.78672998046875 1.9372499999999997 Q 4.73872998046875 1.9623749999999998 4.67272998046875 1.9623749999999998 M 5.010581909179687 1.9548749999999997 Q 5.002331909179688 1.9548749999999997 4.997831909179688 1.9499999999999997 Q 4.9933319091796875 1.9451249999999998 4.9933319091796875 1.9376249999999997 L 4.9933319091796875 1.4478749999999998 Q 4.9933319091796875 1.4396249999999997 4.997831909179688 1.4347499999999997 Q 5.002331909179688 1.4298749999999996 5.010581909179687 1.4298749999999996 L 5.045081909179688 1.4298749999999996 Q 5.054081909179688 1.4298749999999996 5.058581909179687 1.4339999999999997 Q 5.0630819091796875 1.4381249999999997 5.0638319091796875 1.4403749999999997 L 5.312831909179688 1.8228749999999998 L 5.312831909179688 1.4478749999999998 Q 5.312831909179688 1.4396249999999997 5.317331909179687 1.4347499999999997 Q 5.3218319091796875 1.4298749999999996 5.330081909179688 1.4298749999999996 L 5.366081909179687 1.4298749999999996 Q 5.374331909179688 1.4298749999999996 5.379206909179688 1.4347499999999997 Q 5.384081909179688 1.4396249999999997 5.384081909179688 1.4478749999999998 L 5.384081909179688 1.9368749999999997 Q 5.384081909179688 1.9443749999999997 5.379206909179688 1.9496249999999997 Q 5.374331909179688 1.9548749999999997 5.366831909179687 1.9548749999999997 L 5.330831909179688 1.9548749999999997 Q 5.3225819091796875 1.9548749999999997 5.318456909179687 1.9503749999999997 Q 5.314331909179687 1.9458749999999998 5.312831909179688 1.9443749999999997 L 5.0645819091796875 1.5656249999999998 L 5.0645819091796875 1.9376249999999997 Q 5.0645819091796875 1.9451249999999998 5.059706909179687 1.9499999999999997 Q 5.054831909179688 1.9548749999999997 5.046581909179688 1.9548749999999997 L 5.010581909179687 1.9548749999999997" fill="#3361e1" fill-rule="nonzero"></path></g><g clip-path="url(#SvgjsClipPath1001)"><g clip-path="url(#SvgjsClipPath100070393144-dc3b-4e2f-b52b-70e6a24e3ba9)"><path d=" M 4.081009083382595 -3.0533105946873023 C 4.081420747295173 -4.204608269128322 4.78602337245418 -5.2384859772858405 5.8574281762891705 -5.6598863225134926 C 5.530608411907956 -5.789663414195661 5.1821802581733785 -5.856416295407388 4.830536674506995 -5.8566211893746045 C 4.087026254150058 -5.856706743764777 3.3739435254719368 -5.5613862709180335 2.848202261874099 -5.035645007320198 C 2.322460998276261 -4.509903743722362 2.027140525429526 -3.7968210150442356 2.027226079819692 -3.0533105946873023 C 2.027226079819693 -2.3098263988343275 2.3225740266388475 -1.5967933800044838 2.848296743231511 -1.0710706634118177 C 3.3740194598241744 -0.5453479468191595 4.087052478654026 -0.25 4.830536674506996 -0.25 C 5.1821654761089455 -0.25035995037606007 5.530564838415874 -0.3171073156421542 5.857428176288444 -0.44673486686139885 C 4.786023372453572 -0.8681352120893377 4.081420747294852 -1.902012920247064 4.081009083382593 -3.0533105946873023 Z" fill="#3361e1" transform="matrix(1,0,0,1,0,0)" fill-rule="nonzero"></path></g><g clip-path="url(#SvgjsClipPath100070393144-dc3b-4e2f-b52b-70e6a24e3ba9)"><path d=" M 1.6618152533377886 -5.8566211893746045 C 1.3100609709159672 -5.856480330829811 0.9615152620167754 -5.789725893646604 0.6346012353811561 -5.659886322513206 C 1.7060060392160292 -5.238485977285267 2.410608664374748 -4.204608269127541 2.411020328287007 -3.0533105946873023 C 2.4106086643744282 -1.9020129202462832 1.7060060392154228 -0.868135212088764 0.6346012353804302 -0.44673486686111197 C 0.9615588945628619 -0.31704503664710426 1.3100757541786494 -0.25029612475835705 1.66181525333779 -0.25 C 3.20991499192159 -0.250178106275742 4.464803342095324 -1.5052108458580902 4.464803331849909 -3.0533105946873023 C 4.464888874888665 -3.7967651318644844 4.169612671705998 -4.50979897570795 3.6439411666434927 -5.035530965354042 C 3.118269661580986 -5.561262955000141 2.405269795443022 -5.85662119429507 1.6618152533411372 -5.8566211893746045 Z" fill="#dddee0" transform="matrix(1,0,0,1,0,0)" fill-rule="nonzero"></path></g><g clip-path="url(#SvgjsClipPath100070393144-dc3b-4e2f-b52b-70e6a24e3ba9)"><path d=" M 3.23730676910487 -3.883144713432178 C 2.0860369333379496 -3.8836465945233076 1.0522051746695715 -4.588217904439845 0.6307310412789635 -5.659563806338042 C 0.5008136517917103 -5.332774241071716 0.4339500906229268 -4.98433957861441 0.43367365824238524 -4.63267230455658 C 0.4336736582423847 -3.889132207294711 0.7290658815409181 -3.1760503098606865 1.25485835818096 -2.650318324761903 C 1.7806508348210024 -2.12458633966312 2.4937667138693067 -1.8292761619134899 3.2373067876573445 -1.8293617098714128 C 3.9807909649578406 -1.8293617098692776 4.693823983787691 -2.124709656688437 5.219546700380354 -2.6504323732810953 C 5.745269416973018 -3.176155089873761 6.0406173637921725 -3.8891881087036206 6.040617363792171 -4.63267230455658 C 6.040854190515116 -4.984235960189924 5.9745384827975805 -5.33266700535933 5.845172561631527 -5.659563806337978 C 5.423599813383017 -4.587720868373536 4.389075344685018 -3.8830262389413637 3.237306769104868 -3.883144713432178 Z" fill="#51a8db" transform="matrix(1,0,0,1,0,0)" fill-rule="nonzero"></path></g><g clip-path="url(#SvgjsClipPath100070393144-dc3b-4e2f-b52b-70e6a24e3ba9)"><path d=" M 0.43367365824238524 -1.4639508833873691 C 0.43397935729912823 -1.1121818046634813 0.5008411485139087 -0.7636469355652897 0.6307310412790351 -0.4367368654305519 C 1.0521313865069049 -1.5081416692656102 2.0860090946646324 -2.2127442944243256 3.237306769104871 -2.2131559583365834 C 4.389103183689463 -2.2133647743661444 5.423673690018193 -1.5086387851429635 5.845172561631507 -0.43673686543073575 C 5.975062454396612 -0.7636469355654727 6.0419242456113675 -1.1121818046636722 6.042229944668087 -1.4639508833873691 C 6.042058924463529 -2.2076324200700648 5.746424390351507 -2.9207773126101726 5.220380693172769 -3.4464580958895135 C 4.694336995994032 -3.9721388791688543 3.980988246713272 -4.267281179450029 3.237306769104878 -4.266938961899484 C 1.689154823681807 -4.266939002873095 0.4340298418258237 -3.012102787836822 0.4336736582423847 -1.4639508833873611 Z" fill="#000000" transform="matrix(1,0,0,1,0,0)" fill-rule="nonzero"></path></g></g></g><defs><clipPath id="SvgjsClipPath1001"><path d=" M 0.43367365824238524 -5.8566211893746045 h 5.6066211893746045 v 5.6066211893746045 h -5.6066211893746045 Z"></path></clipPath><clipPath id="SvgjsClipPath100070393144-dc3b-4e2f-b52b-70e6a24e3ba9"><path d=" M 0.43367365824238524 -5.8566211893746045 L 6.040294847616989 -5.8566211893746045 L 6.040294847616989 -0.25 L 0.43367365824238524 -0.25 Z"></path></clipPath></defs></svg>